<svg xmlns="http://www.w3.org/2000/svg" viewBox="0 0 64 64" role="img" aria-labelledby="title desc">
  <title id="title">ClubHub Victoria</title>
  <desc id="desc">Clock and arrow mark for ClubHub Victoria.</desc>
  <defs>
    <linearGradient id="bg" x1="8" y1="8" x2="56" y2="56" gradientUnits="userSpaceOnUse">
      <stop offset="0" stop-color="#31465f"/>
      <stop offset="1" stop-color="#08111d"/>
    </linearGradient>
    <linearGradient id="accent" x1="18" y1="18" x2="49" y2="45" gradientUnits="userSpaceOnUse">
      <stop offset="0" stop-color="#e7fbff"/>
      <stop offset="0.5" stop-color="#97ece1"/>
      <stop offset="1" stop-color="#57d6ce"/>
    </linearGradient>
  </defs>
  <circle cx="32" cy="32" r="30" fill="url(#bg)"/>
  <circle cx="32" cy="32" r="29" fill="none" stroke="#d7efff" stroke-opacity="0.28"/>
  <path
    d="M32 11C21.5 11 13 19.5 13 30s8.5 19 19 19c4.4 0 8.4-1.5 11.6-4.1"
    fill="none"
    stroke="#e8f2ff"
    stroke-opacity="0.82"
    stroke-width="5"
    stroke-linecap="round"
  />
  <path
    d="M34 29h11.3l-3.8-3.8a2.2 2.2 0 1 1 3.1-3.1l7.4 7.4a2.2 2.2 0 0 1 0 3.1L44.6 40a2.2 2.2 0 1 1-3.1-3.1l3.8-3.9H34a2 2 0 0 1 0-4Z"
    fill="url(#accent)"
  />
  <circle cx="32" cy="32" r="1.7" fill="#f4fbff"/>
  <path d="M32 32 23.8 25.6" fill="none" stroke="url(#accent)" stroke-width="3.1" stroke-linecap="round"/>
  <path d="M32 32 38.6 24.5" fill="none" stroke="url(#accent)" stroke-width="3.1" stroke-linecap="round"/>
  <path d="M32 19.3v-2.6" fill="none" stroke="#f1f7ff" stroke-width="1.8" stroke-linecap="round"/>
  <path d="M20.2 32h-2.5" fill="none" stroke="#f1f7ff" stroke-width="1.8" stroke-linecap="round"/>
  <path d="M32 44.7v2.6" fill="none" stroke="#f1f7ff" stroke-width="1.8" stroke-linecap="round"/>
  <path d="M43.8 32h2.5" fill="none" stroke="#f1f7ff" stroke-width="1.8" stroke-linecap="round"/>
</svg>
